<svg width="130" height="43" viewBox="0 0 130 43" fill="none" xmlns="http://www.w3.org/2000/svg">
<path d="M6.14966 42.0166C6.14966 39.294 6.14966 36.6843 6.14966 34.1027C7.99245 33.7359 9.82833 33.4785 11.6054 32.9883C15.5607 31.902 19.0873 30.0435 21.4763 26.485C23.2638 23.8224 23.7893 21.0116 22.026 18.0844C21.1548 16.6385 19.7995 15.8097 18.3301 15.1326C18.095 15.0232 17.8633 14.9033 17.6351 14.7834C17.6179 14.7729 17.6179 14.727 17.5833 14.5859C21.6699 15.4288 25.4938 16.6244 27.506 20.7541C28.7749 23.3568 28.3669 26.016 27.2052 28.5658C25.2172 32.9283 21.8463 35.9578 17.9083 38.4053C14.5615 40.486 10.8932 41.6146 7.00364 42.0131C6.74433 42.0413 6.48157 42.0166 6.14966 42.0166Z" fill="white"></path>
<path d="M22.0408 0.890528C22.0408 3.32748 22.0408 5.66216 22.0408 7.80287C19.5135 8.44825 17.0172 8.91378 14.6385 9.7355C11.0048 10.9945 7.94154 13.1317 6.09874 16.7184C4.88865 19.0742 4.7227 21.5041 5.77375 23.9904C6.57587 25.8878 8.08329 26.9634 9.84657 27.7711C10.1128 27.8945 10.3756 28.0179 10.6418 28.1484C10.6625 28.159 10.6694 28.2013 10.6833 28.226C5.47295 28.4835 0.487377 23.6977 0.445888 18.4676C0.421686 15.149 1.72513 12.3946 3.82723 10.0141C8.58116 4.62883 14.4933 1.53239 21.6052 0.894054C21.7193 0.879948 21.8368 0.890528 22.0408 0.890528Z" fill="white"></path><path d="M19.5913 21.198C19.5913 24.2168 17.1642 26.6855 14.1943 26.6855C11.1829 26.6855 8.76968 24.2062 8.78351 21.1274C8.79734 18.1121 11.2417 15.6575 14.2116 15.6751C17.1677 15.6928 19.5913 18.1826 19.5913 21.198ZM16.7632 18.0874C16.1858 18.0768 15.5324 18.6975 15.5185 19.2653C15.5047 19.819 16.1478 20.4785 16.7217 20.4962C17.344 20.5173 17.9214 19.953 17.9352 19.3112C17.9491 18.6693 17.4028 18.098 16.7632 18.0874Z" fill="white"></path><path d="M37.477 27.9565V16.2958H40.0573V20.9767H45.3997V16.2958H47.9965V27.9565H45.3997V23.1103H40.0573V27.9565H37.477ZM48.9111 27.9565L54.27 16.2958H56.4037L61.8288 27.9565H59.2155L57.8096 24.7147L58.8185 25.4259H51.8883L52.9137 24.7147L51.5078 27.9565H48.9111ZM55.3286 19.0084L53.1949 24.0696L52.7483 23.4411H57.9584L57.578 24.0696L55.3947 19.0084H55.3286ZM62.7516 27.9565V16.2958H68.0444C69.3565 16.2958 70.371 16.6101 71.0877 17.2386C71.8045 17.8561 72.1628 18.7217 72.1628 19.8354C72.1628 20.5632 71.9974 21.1917 71.6666 21.721C71.3468 22.2392 70.8837 22.6417 70.2773 22.9284C69.6818 23.204 68.9651 23.3419 68.1271 23.3419L68.3255 22.978H69.0037C69.4778 22.978 69.8968 23.1048 70.2607 23.3584C70.6356 23.612 70.9444 23.9814 71.187 24.4666L72.9237 27.9565H70.0788L68.2759 24.202C68.1436 23.8822 67.9341 23.6727 67.6474 23.5734C67.3717 23.4632 67.052 23.408 66.6881 23.408H65.3318V27.9565H62.7516ZM65.3318 21.5556H67.5978C68.2704 21.5556 68.7831 21.4177 69.136 21.1421C69.4889 20.8664 69.6653 20.4584 69.6653 19.9181C69.6653 19.3778 69.4889 18.9753 69.136 18.7107C68.7831 18.435 68.2704 18.2972 67.5978 18.2972H65.3318V21.5556ZM74.3793 27.9565V16.2958H82.4839V18.2972H76.8438V21.0263H82.0869V23.0442H76.8438V25.9552H82.4839V27.9565H74.3793ZM84.198 27.9565V16.2958H86.7782V25.7898H92.038V27.9565H84.198ZM92.5387 22.1179C92.5387 20.905 92.7647 19.8519 93.2168 18.9588C93.6799 18.0546 94.3415 17.3544 95.2016 16.8582C96.0617 16.362 97.0817 16.1139 98.2615 16.1139C99.4414 16.1139 100.461 16.362 101.321 16.8582C102.181 17.3544 102.843 18.0546 103.306 18.9588C103.78 19.8519 104.017 20.8995 104.017 22.1014C104.017 23.3253 103.78 24.3894 103.306 25.2936C102.843 26.1868 102.181 26.887 101.321 27.3942C100.461 27.8904 99.4414 28.1385 98.2615 28.1385C97.0817 28.1385 96.0617 27.8904 95.2016 27.3942C94.3526 26.887 93.6965 26.1812 93.2334 25.2771C92.7702 24.3729 92.5387 23.3198 92.5387 22.1179ZM95.2347 22.1179C95.2347 23.3198 95.4828 24.2626 95.979 24.9463C96.4862 25.6189 97.2471 25.9552 98.2615 25.9552C99.2539 25.9552 100.009 25.6189 100.527 24.9463C101.046 24.2626 101.305 23.3198 101.305 22.1179C101.305 20.905 101.046 19.9677 100.527 19.3061C100.02 18.6335 99.2649 18.2972 98.2615 18.2972C97.2471 18.2972 96.4862 18.6335 95.979 19.3061C95.4828 19.9677 95.2347 20.905 95.2347 22.1179ZM105.604 22.1179C105.604 20.905 105.83 19.8519 106.282 18.9588C106.745 18.0546 107.407 17.3544 108.267 16.8582C109.127 16.362 110.147 16.1139 111.327 16.1139C112.507 16.1139 113.527 16.362 114.387 16.8582C115.247 17.3544 115.908 18.0546 116.372 18.9588C116.846 19.8519 117.083 20.8995 117.083 22.1014C117.083 23.3253 116.846 24.3894 116.372 25.2936C115.908 26.1868 115.247 26.887 114.387 27.3942C113.527 27.8904 112.507 28.1385 111.327 28.1385C110.147 28.1385 109.127 27.8904 108.267 27.3942C107.418 26.887 106.762 26.1812 106.299 25.2771C105.836 24.3729 105.604 23.3198 105.604 22.1179ZM108.3 22.1179C108.3 23.3198 108.548 24.2626 109.044 24.9463C109.552 25.6189 110.312 25.9552 111.327 25.9552C112.319 25.9552 113.075 25.6189 113.593 24.9463C114.111 24.2626 114.37 23.3198 114.37 22.1179C114.37 20.905 114.111 19.9677 113.593 19.3061C113.086 18.6335 112.33 18.2972 111.327 18.2972C110.312 18.2972 109.552 18.6335 109.044 19.3061C108.548 19.9677 108.3 20.905 108.3 22.1179ZM119.017 27.9565V16.2958H121.597V21.3736H121.63L126.41 16.2958H129.47L123.598 22.3991L123.615 21.3405L129.834 27.9565H126.675L121.63 22.6307H121.597V27.9565H119.017Z" fill="white"></path></svg>