<?xml version="1.0"?>
<svg xmlns="http://www.w3.org/2000/svg" width="512" height="512" viewBox="0 0 512 512"><g><path d="M496,424H436a28.031,28.031,0,0,0,28-28v-8a28.031,28.031,0,0,0-28-28H416.55L394.77,259.74A48.215,48.215,0,0,0,346.96,216H304v-8a8.074,8.074,0,0,0-.49-2.75A59.858,59.858,0,0,0,318.79,176H320a24.032,24.032,0,0,0,24-24V100a84.092,84.092,0,0,0-84-84h-8a84.092,84.092,0,0,0-84,84v52a24.032,24.032,0,0,0,24,24h1.21a59.858,59.858,0,0,0,15.28,29.25A8.074,8.074,0,0,0,208,208v8H165.04a48.215,48.215,0,0,0-47.81,43.74L98.93,344H92a27.525,27.525,0,0,0-6.65.81L63.16,300.42a8.005,8.005,0,1,0-14.32,7.16l22.68,45.35A27.918,27.918,0,0,0,64,372v24a28.031,28.031,0,0,0,28,28H16a8,8,0,0,0-8,8v32a8,8,0,0,0,8,8h8v16a8,8,0,0,0,8,8H480a8,8,0,0,0,8-8V472h8a8,8,0,0,0,8-8V432A8,8,0,0,0,496,424Zm-84-48h24a12.01,12.01,0,0,1,12,12v8a12.01,12.01,0,0,1-12,12H412a12.01,12.01,0,0,1-12-12v-8A12.01,12.01,0,0,1,412,376ZM328,152a8.011,8.011,0,0,1-8,8V128h8Zm-136,8a8.011,8.011,0,0,1-8-8V128h8Zm-8-48V100a68.071,68.071,0,0,1,68-68h8a68.071,68.071,0,0,1,68,68v12h-8v-4c0-1.53-.06-3.06-.17-4.55a8,8,0,0,0-10.94-6.82C270.77,111.81,200.7,112,200,112Zm24,52V127.88c18.1-.45,62.86-2.58,96-12.63V164a44.052,44.052,0,0,1-44,44h-8A44.052,44.052,0,0,1,208,164Zm80,53.04V224c0,13.23-14.35,24-32,24s-32-10.77-32-24v-6.96A59.553,59.553,0,0,0,252,224h8A59.553,59.553,0,0,0,288,217.04ZM132.98,262.63a7.954,7.954,0,0,0,.16-1.09A32.138,32.138,0,0,1,165.04,232h43.93c4.46,18.24,23.85,32,47.03,32s42.57-13.76,47.03-32h43.93a32.138,32.138,0,0,1,31.9,29.54,7.954,7.954,0,0,0,.16,1.09l21.68,99.76A28.035,28.035,0,0,0,384,388v8a28.031,28.031,0,0,0,28,28H376V300a28.031,28.031,0,0,0-28-28H164a28.031,28.031,0,0,0-28,28V424H100a28.031,28.031,0,0,0,28-28V372a27.987,27.987,0,0,0-13.57-23.98ZM360,300V424H152V300a12.01,12.01,0,0,1,12-12H348A12.01,12.01,0,0,1,360,300ZM80,396V372a12.01,12.01,0,0,1,12-12h8a12.01,12.01,0,0,1,12,12v24a12.01,12.01,0,0,1-12,12H92A12.01,12.01,0,0,1,80,396Zm392,84H40v-8H472Zm16-24H24V440H488Z"/><path d="M256,336a32,32,0,1,0,32,32A32.036,32.036,0,0,0,256,336Zm0,48a16,16,0,1,1,16-16A16.019,16.019,0,0,1,256,384Z"/><circle cx="232" cy="144" r="8"/><circle cx="280" cy="144" r="8"/><path d="M248,192h16a8,8,0,0,0,0-16H248a8,8,0,0,0,0,16Z"/></g></svg>
