<svg width="360" height="96" viewBox="0 0 360 96" fill="none" xmlns="http://www.w3.org/2000/svg" role="img" aria-label="PixelKit">
  <rect x="8" y="8" width="80" height="80" rx="20" fill="#17211F"/>
  <rect x="29" y="29" width="38" height="38" rx="5" fill="#FBFAF7"/>
  <rect x="36" y="36" width="13" height="13" rx="2" fill="#46A67E"/>
  <rect x="52" y="36" width="8" height="8" rx="2" fill="#4F94D4"/>
  <rect x="36" y="52" width="8" height="8" rx="2" fill="#E56F4F"/>
  <path d="M52 52H60V60H52V52Z" fill="#7C6CF2"/>
  <path d="M112.88 66V26.8H129.88C138.2 26.8 143.8 32.12 143.8 39.84C143.8 47.56 138.2 52.94 129.88 52.94H122.12V66H112.88ZM122.12 45.18H128.7C132.34 45.18 134.5 43.16 134.5 39.84C134.5 36.52 132.34 34.56 128.7 34.56H122.12V45.18ZM151.15 66V36.74H159.95V66H151.15ZM150.65 32.82V25.68H160.45V32.82H150.65ZM165.68 66L176.02 51.02L166.1 36.74H176.16L181.42 44.84L186.68 36.74H196.38L186.46 50.8L196.94 66H186.88L181.2 57.24L175.38 66H165.68ZM215.21 66.7C206.17 66.7 199.93 60.6 199.93 51.36C199.93 42.3 206.11 36.04 214.87 36.04C223.55 36.04 229.31 41.94 229.31 50.8V53.18H208.45C209.15 57.52 211.65 59.96 215.49 59.96C218.41 59.96 220.51 58.7 221.49 56.4H229.03C227.49 62.7 222.25 66.7 215.21 66.7ZM208.59 48.06H220.79C220.23 44.56 218.13 42.6 214.87 42.6C211.59 42.6 209.35 44.56 208.59 48.06ZM237.38 66V25.4H246.18V66H237.38ZM256.77 66V26.8H266.01V43.3L280.29 26.8H291.47L275.95 44.42L292.09 66H280.79L269.79 50.88L266.01 55.16V66H256.77ZM298.34 66V36.74H307.14V66H298.34ZM297.84 32.82V25.68H307.64V32.82H297.84ZM329.02 66.56C322.58 66.56 319.26 63.3 319.26 56.86V43.8H313.72V36.74H319.26V28.78H328.06V36.74H335.62V43.8H328.06V55.62C328.06 58.28 329.18 59.4 331.84 59.4H335.4V66H329.02Z" fill="#17211F"/>
</svg>
