<svg width="128" height="128" viewBox="0 0 128 128" fill="none" xmlns="http://www.w3.org/2000/svg" role="img" aria-label="Prabsy mark">
  <rect width="128" height="128" rx="28" fill="#17211F"/>
  <path d="M35 42C35 38.134 38.134 35 42 35H86C89.866 35 93 38.134 93 42V86C93 89.866 89.866 93 86 93H42C38.134 93 35 89.866 35 86V42Z" fill="#FBFAF7"/>
  <path d="M45 47C45 45.8954 45.8954 45 47 45H62C63.1046 45 64 45.8954 64 47V62C64 63.1046 63.1046 64 62 64H47C45.8954 64 45 63.1046 45 62V47Z" fill="#46A67E"/>
  <path d="M68 47C68 45.8954 68.8954 45 70 45H81C82.1046 45 83 45.8954 83 47V58C83 59.1046 82.1046 60 81 60H70C68.8954 60 68 59.1046 68 58V47Z" fill="#4F94D4"/>
  <path d="M45 70C45 68.8954 45.8954 68 47 68H58C59.1046 68 60 68.8954 60 70V81C60 82.1046 59.1046 83 58 83H47C45.8954 83 45 82.1046 45 81V70Z" fill="#E56F4F"/>
  <path d="M66 66H83V78C83 80.7614 80.7614 83 78 83H66V66Z" fill="#7C6CF2"/>
  <path d="M35 64H93" stroke="#17211F" stroke-opacity=".12" stroke-width="2"/>
  <path d="M64 35V93" stroke="#17211F" stroke-opacity=".12" stroke-width="2"/>
</svg>
